<svg width="50.000000" height="50.000000" viewBox="0 0 50 50" fill="none" xmlns="http://www.w3.org/2000/svg" xmlns:xlink="http://www.w3.org/1999/xlink">
	<desc>
			Created with Pixso.
	</desc>
	<g clip-path="url(#clip2_303)">
		<path d="M22.6967 40.3099L22.6967 45.2675L27.6176 45.2675L41.8739 30.7654L36.947 25.799L22.6967 40.3099Z" fill-rule="evenodd" fill="#666666"/>
		<path d="M45.6231 25.1467L42.6592 22.1609C42.5413 22.036 42.4031 21.9396 42.2448 21.8715C42.0863 21.8034 41.9208 21.7694 41.7481 21.7694C41.5754 21.7694 41.4099 21.8034 41.2515 21.8715C41.0931 21.9396 40.9549 22.036 40.837 22.1609L38.5024 24.5151L43.4233 29.4816L45.6141 26.985C45.7366 26.863 45.8312 26.7226 45.8978 26.5638C45.9644 26.405 45.9982 26.2396 45.999 26.0677C45.9999 25.8957 45.9678 25.73 45.9026 25.5706C45.8376 25.4111 45.7444 25.2698 45.6231 25.1467L45.6231 25.1467Z" fill-rule="evenodd" fill="#666666"/>
		<path d="M18.498 42.2759L9.86395 42.2759C9.55768 42.2662 9.26477 42.1991 8.98535 42.0745C8.70593 41.95 8.46106 41.7775 8.25073 41.5569C8.04047 41.3363 7.88062 41.0844 7.77124 40.8012C7.66187 40.5179 7.61121 40.2247 7.61926 39.9216L7.61926 10.0784C7.61121 9.77525 7.66187 9.48207 7.77124 9.19882C7.88062 8.91557 8.04047 8.66368 8.25073 8.44312C8.46106 8.22255 8.70593 8.04999 8.98535 7.92545C9.26477 7.80092 9.55768 7.7338 9.86395 7.72411L36.8721 7.72411C37.1782 7.73418 37.4707 7.80157 37.7498 7.92628C38.0289 8.05099 38.2734 8.2236 38.4834 8.44412C38.6934 8.66464 38.8529 8.91644 38.9622 9.19949C39.0713 9.48254 39.1219 9.7755 39.1138 10.0784L39.1138 17.6748C39.1038 17.9192 39.1425 18.1558 39.2302 18.3845C39.3177 18.6133 39.4471 18.8158 39.6184 18.9923C39.7896 19.1687 39.989 19.3049 40.2164 19.4008C40.4438 19.4967 40.6812 19.5446 40.9284 19.5446C41.1757 19.5446 41.413 19.4967 41.6404 19.4008C41.8679 19.3049 42.0672 19.1687 42.2384 18.9923C42.4097 18.8158 42.5391 18.6133 42.6267 18.3845C42.7143 18.1558 42.7531 17.9192 42.743 17.6748L42.743 10.0784C42.743 6.72784 40.1088 4 36.8781 4L9.86395 4C6.62732 4 3.99902 6.72784 3.99902 10.0784L3.99902 39.9216C3.99902 43.2781 6.6333 46 9.86395 46L18.498 46C18.7474 45.9997 18.9872 45.9522 19.2175 45.8575C19.4478 45.7629 19.651 45.6283 19.8272 45.4537C20.0034 45.2791 20.1392 45.0779 20.2345 44.8499C20.3298 44.622 20.3775 44.3846 20.3775 44.1379C20.3775 43.8912 20.3298 43.6539 20.2345 43.4259C20.1392 43.198 20.0034 42.9967 19.8272 42.8222C19.651 42.6476 19.4478 42.513 19.2175 42.4184C18.9872 42.3237 18.7474 42.2762 18.498 42.2759L18.498 42.2759Z" fill-rule="evenodd" fill="#666666"/>
		<path d="M21.1683 28.1711L13.5592 28.1711C13.3098 28.1714 13.0699 28.2188 12.8395 28.3134C12.6091 28.408 12.4058 28.5426 12.2296 28.7172C12.0533 28.8917 11.9174 29.093 11.822 29.321C11.7266 29.549 11.679 29.7864 11.679 30.0332C11.679 30.28 11.7266 30.5173 11.822 30.7454C11.9174 30.9734 12.0533 31.1747 12.2296 31.3492C12.4058 31.5238 12.6091 31.6584 12.8395 31.753C13.0699 31.8476 13.3098 31.895 13.5592 31.8952L21.1683 31.8952C21.4177 31.895 21.6577 31.8476 21.888 31.753C22.1183 31.6584 22.3217 31.5238 22.4979 31.3492C22.6743 31.1747 22.8101 30.9734 22.9055 30.7454C23.0009 30.5173 23.0485 30.28 23.0485 30.0332C23.0485 29.7864 23.0009 29.549 22.9055 29.321C22.8101 29.093 22.6743 28.8917 22.4979 28.7172C22.3217 28.5426 22.1183 28.408 21.888 28.3134C21.6577 28.2188 21.4177 28.1714 21.1683 28.1711L21.1683 28.1711Z" fill-rule="evenodd" fill="#666666"/>
		<path d="M34.7982 14.5586C34.8022 14.3161 34.7593 14.082 34.6694 13.8564C34.5795 13.6308 34.4494 13.4307 34.2792 13.2562C34.1089 13.0817 33.9115 12.9459 33.6868 12.849C33.4621 12.752 33.2272 12.7012 32.9821 12.6965L13.5591 12.6965C13.3097 12.6967 13.0698 12.7441 12.8394 12.8386C12.6089 12.9332 12.4055 13.0678 12.2292 13.2424C12.0529 13.4169 11.917 13.6183 11.8215 13.8463C11.7261 14.0743 11.6784 14.3118 11.6784 14.5586C11.6784 14.8054 11.7261 15.0428 11.8215 15.2709C11.917 15.4989 12.0529 15.7002 12.2292 15.8748C12.4055 16.0494 12.6089 16.184 12.8394 16.2785C13.0698 16.3731 13.3097 16.4205 13.5591 16.4206L32.9821 16.4206C33.2272 16.416 33.4621 16.3651 33.6868 16.2682C33.9115 16.1712 34.1089 16.0355 34.2792 15.861C34.4494 15.6865 34.5795 15.4864 34.6694 15.2608C34.7593 15.0351 34.8022 14.8011 34.7982 14.5586L34.7982 14.5586Z" fill-rule="evenodd" fill="#666666"/>
		<path d="M13.5592 20.1741C13.3096 20.1741 13.0695 20.2213 12.8389 20.3158C12.6084 20.4103 12.4048 20.5449 12.2284 20.7195C12.0519 20.8941 11.9159 21.0954 11.8204 21.3235C11.7249 21.5517 11.6771 21.7892 11.6771 22.0361C11.6771 22.2831 11.7249 22.5206 11.8204 22.7487C11.9159 22.9768 12.0519 23.1782 12.2284 23.3528C12.4048 23.5274 12.6084 23.6619 12.8389 23.7564C13.0695 23.8509 13.3096 23.8982 13.5592 23.8982L26.9644 23.8982C27.2139 23.8982 27.454 23.8509 27.6846 23.7564C27.9152 23.6619 28.1187 23.5274 28.2952 23.3528C28.4716 23.1782 28.6076 22.9768 28.7031 22.7487C28.7986 22.5206 28.8464 22.2831 28.8464 22.0361C28.8464 21.7892 28.7986 21.5517 28.7031 21.3235C28.6076 21.0954 28.4716 20.8941 28.2952 20.7195C28.1187 20.5449 27.9152 20.4103 27.6846 20.3158C27.454 20.2213 27.2139 20.1741 26.9644 20.1741L13.5592 20.1741Z" fill-rule="evenodd" fill="#666666"/>
	</g>
	<defs>
		<clipPath id="clip2_303">
			<rect width="50.000000" height="50.000000" fill="white"/>
		</clipPath>
	</defs>
</svg>
